<svg xmlns="http://www.w3.org/2000/svg" viewBox="0 0 104.653 36.375">
  <g>
    <path d="M8.907,7.987a1.688,1.688,0,0,0,.709.529,2.5,2.5,0,0,0,1.028.211,2.274,2.274,0,0,0,1.973-1.054v.914h.943V2.366H12.506V5.7a3.3,3.3,0,0,1-.173,1.215,1.347,1.347,0,0,1-.588.662,1.726,1.726,0,0,1-.89.244,1.3,1.3,0,0,1-.8-.238,1.1,1.1,0,0,1-.422-.653,6.152,6.152,0,0,1-.064-1.113V2.366H8.517V6.22a5.35,5.35,0,0,0,.065.985A1.994,1.994,0,0,0,8.907,7.987Z"/>
    <path d="M16.042,7.808a1.98,1.98,0,0,0,1.728.919,2.468,2.468,0,0,0,1.9-.873,3.552,3.552,0,0,0,.791-2.472,4.16,4.16,0,0,0-.187-1.264,3.132,3.132,0,0,0-.519-1.011,2.217,2.217,0,0,0-.843-.65,2.616,2.616,0,0,0-1.087-.231,2.086,2.086,0,0,0-1.7.837V0H15.063V8.587h.979Zm.492-4.115a1.512,1.512,0,0,1,1.194-.6,1.471,1.471,0,0,1,1.169.58,2.773,2.773,0,0,1,.483,1.8,2.731,2.731,0,0,1-.5,1.789,1.507,1.507,0,0,1-2.542-.214,3.215,3.215,0,0,1-.3-1.616A2.634,2.634,0,0,1,16.534,3.693Z"/>
    <polygon points="32.841 5.611 34.247 4.241 37.304 8.587 38.804 8.587 35.044 3.479 38.645 0 37.105 0 32.841 4.258 32.841 0 31.705 0 31.705 8.587 32.841 8.587 32.841 5.611"/>
    <path d="M51.522,7.86A1.7,1.7,0,0,1,50.4,7.526a1.458,1.458,0,0,1-.489-.96H48.856a1.5,1.5,0,0,0,.014.164h0l0,.016c.006.035.013.074.022.114l0,0a2.289,2.289,0,0,0,.783,1.361,2.929,2.929,0,0,0,1.848.5,3.229,3.229,0,0,0,1.312-.255,1.983,1.983,0,0,0,.888-.72,1.77,1.77,0,0,0,.307-.993,1.545,1.545,0,0,0-.252-.9,1.583,1.583,0,0,0-.694-.553,13.066,13.066,0,0,0-1.561-.49c-.515-.14-.826-.23-.931-.269a.927.927,0,0,1-.4-.281.582.582,0,0,1-.129-.369.7.7,0,0,1,.31-.563,1.734,1.734,0,0,1,1.037-.239,1.494,1.494,0,0,1,.952.269,1.128,1.128,0,0,1,.407.75h1.05s-.008-.067-.019-.141h0c-.006-.037-.013-.075-.02-.109l0,0a2.135,2.135,0,0,0-.339-.85,1.74,1.74,0,0,0-.817-.571,3.593,3.593,0,0,0-1.286-.211,3.189,3.189,0,0,0-.911.125,2.179,2.179,0,0,0-.671.308,1.715,1.715,0,0,0-.518.589,1.6,1.6,0,0,0-.19.77,1.569,1.569,0,0,0,.231.835,1.551,1.551,0,0,0,.68.591,9.72,9.72,0,0,0,1.607.507,4.584,4.584,0,0,1,1.078.357.64.64,0,0,1,.31.562.884.884,0,0,1-.351.7A1.65,1.65,0,0,1,51.522,7.86Z"/>
    <rect x="55.185" y="2.366" width="1.054" height="6.221"/>
    <rect x="55.185" width="1.054" height="1.212"/>
    <polygon points="66.826 4.674 69.205 2.366 67.84 2.366 65.345 4.897 65.345 0 64.29 0 64.29 8.587 65.345 8.587 65.345 6.121 66.089 5.406 68.144 8.587 69.445 8.587 66.826 4.674"/>
    <path d="M3.3,12.632,0,21.219H1.207l.943-2.6H5.74l1,2.6H8.036L4.522,12.632Zm-.82,5.06.943-2.518a10.926,10.926,0,0,0,.462-1.641q.2.7.61,1.781l.9,2.378Z"/>
    <path d="M13.671,21.219V15H12.617v3.333a3.322,3.322,0,0,1-.173,1.215,1.349,1.349,0,0,1-.589.662,1.735,1.735,0,0,1-.89.243,1.31,1.31,0,0,1-.8-.237,1.1,1.1,0,0,1-.421-.653,6.13,6.13,0,0,1-.065-1.113V15H8.628v3.854a5.359,5.359,0,0,0,.064.984,2,2,0,0,0,.325.782,1.694,1.694,0,0,0,.709.53,2.524,2.524,0,0,0,1.028.211,2.276,2.276,0,0,0,1.974-1.054v.914Z"/>
    <path d="M15.371,19.4a3.812,3.812,0,0,0,.128,1.245,1.018,1.018,0,0,0,.446.477,1.8,1.8,0,0,0,.89.181,3.947,3.947,0,0,0,.8-.093v-.978a.817.817,0,0,1-.185.051,3.328,3.328,0,0,1-.43.036.7.7,0,0,1-.361-.076.446.446,0,0,1-.181-.2,1.849,1.849,0,0,1-.056-.581V15.818h1.06V15h-1.06V12.825l-1.048.633V15H14.6v.82h.773Z"/>
    <path d="M23.411,19.909a4.114,4.114,0,0,0,.36-1.889,3.2,3.2,0,0,0-.815-2.322,2.79,2.79,0,0,0-2.1-.841,2.894,2.894,0,0,0-1.957.692,3.205,3.205,0,0,0-.96,2.559,3.345,3.345,0,0,0,.8,2.413,2.8,2.8,0,0,0,2.112.838,3.052,3.052,0,0,0,1.5-.381A2.55,2.55,0,0,0,23.411,19.909Zm-2.551.583a1.674,1.674,0,0,1-1.313-.594,2.653,2.653,0,0,1-.521-1.79,2.639,2.639,0,0,1,.521-1.786,1.738,1.738,0,0,1,2.616,0,2.571,2.571,0,0,1,.524,1.748,2.716,2.716,0,0,1-.521,1.822A1.663,1.663,0,0,1,20.86,20.492Z"/>
    <path d="M28.193,15h-.956a1.694,1.694,0,0,0-.628.093,1.98,1.98,0,0,0-.727.85V15h-.949v6.221h1.055V17.962a4.113,4.113,0,0,1,.175-1.23,1.126,1.126,0,0,1,.393-.577,1.3,1.3,0,0,1,.665-.232c.377-.027.975,0,.975,0Z"/>
    <path d="M32.77,17.936a12.879,12.879,0,0,0-1.561-.49q-.774-.21-.932-.269a.933.933,0,0,1-.4-.281.582.582,0,0,1-.129-.369.7.7,0,0,1,.311-.563,1.723,1.723,0,0,1,1.036-.239,1.492,1.492,0,0,1,.952.268,1.124,1.124,0,0,1,.407.751H33.5s-.007-.067-.019-.141h0c-.006-.037-.012-.076-.02-.109l0,0a2.133,2.133,0,0,0-.339-.85,1.754,1.754,0,0,0-.817-.571,3.615,3.615,0,0,0-1.286-.211,3.194,3.194,0,0,0-.911.126,2.172,2.172,0,0,0-.67.308,1.686,1.686,0,0,0-.518.589,1.6,1.6,0,0,0-.191.77,1.534,1.534,0,0,0,.911,1.426,9.873,9.873,0,0,0,1.608.507,4.521,4.521,0,0,1,1.077.357.641.641,0,0,1,.311.562.887.887,0,0,1-.351.7,1.652,1.652,0,0,1-1.078.3,1.7,1.7,0,0,1-1.122-.334,1.458,1.458,0,0,1-.489-.96H28.536a1.5,1.5,0,0,0,.014.164h0l0,.016a1.066,1.066,0,0,0,.022.113l0,0a2.287,2.287,0,0,0,.782,1.361,2.93,2.93,0,0,0,1.849.5,3.229,3.229,0,0,0,1.312-.255,1.993,1.993,0,0,0,.887-.72,1.774,1.774,0,0,0,.308-.993,1.545,1.545,0,0,0-.252-.9A1.582,1.582,0,0,0,32.77,17.936Z"/>
    <polygon points="34.851 12.632 34.851 21.219 35.906 21.219 35.906 18.753 36.65 18.038 38.705 21.219 40.006 21.219 37.388 17.306 39.766 14.998 38.401 14.998 35.906 17.529 35.906 12.632 34.851 12.632"/>
    <path d="M50.849,21.219h1.137V17.728h2.2a3.344,3.344,0,0,0,2.519-.759,2.795,2.795,0,0,0,.436-3.026,2.113,2.113,0,0,0-.688-.828,2.6,2.6,0,0,0-1.06-.4,7.931,7.931,0,0,0-1.307-.081H50.849Zm1.137-7.574h2.2a4.835,4.835,0,0,1,1.06.076,1.274,1.274,0,0,1,.718.507,1.553,1.553,0,0,1,.272.922A1.462,1.462,0,0,1,55.77,16.3a2.352,2.352,0,0,1-1.564.41h-2.22Z"/>
    <path d="M77.593,14.857a2.894,2.894,0,0,0-1.956.692,3.206,3.206,0,0,0-.961,2.559,3.345,3.345,0,0,0,.806,2.413,2.794,2.794,0,0,0,2.111.838,3.053,3.053,0,0,0,1.5-.381,2.541,2.541,0,0,0,1.048-1.069,4.114,4.114,0,0,0,.36-1.889A3.2,3.2,0,0,0,79.69,15.7,2.792,2.792,0,0,0,77.593,14.857ZM78.9,19.9a1.738,1.738,0,0,1-2.619,0,2.653,2.653,0,0,1-.521-1.79,2.639,2.639,0,0,1,.521-1.786,1.738,1.738,0,0,1,2.616,0,2.571,2.571,0,0,1,.524,1.748A2.716,2.716,0,0,1,78.9,19.9Z"/>
    <path d="M87.258,18.6,86.9,19.8l-.31-1.189L85.658,15H84.575l-.99,3.643q-.3,1.184-.322,1.283l-.369-1.335L81.9,15h-1.09l1.9,6.221h1.1l1.26-4.786.24,1.06.99,3.726H87.4L89.348,15H88.324Z"/>
    <path d="M94.853,15.589a1.62,1.62,0,0,0-.706-.529,2.587,2.587,0,0,0-1.033-.2,2.236,2.236,0,0,0-1.98,1.026V15h-.949v6.221h1.054v-3.4a2.108,2.108,0,0,1,.489-1.622,1.711,1.711,0,0,1,1.163-.428,1.4,1.4,0,0,1,.735.19,1.019,1.019,0,0,1,.437.51,2.84,2.84,0,0,1,.123.963v3.785H95.24V17.393a6.022,6.022,0,0,0-.059-1.024A2.042,2.042,0,0,0,94.853,15.589Z"/>
    <rect x="96.726" y="12.632" width="1.054" height="1.212"/>
    <rect x="96.726" y="14.998" width="1.054" height="6.221"/>
    <path d="M6.5,25.746a2.622,2.622,0,0,0-1.061-.4,7.909,7.909,0,0,0-1.306-.081H.9V33.85H2.032V30.359h2.2A3.344,3.344,0,0,0,6.754,29.6a2.795,2.795,0,0,0,.436-3.026A2.124,2.124,0,0,0,6.5,25.746Zm-.686,3.19a2.356,2.356,0,0,1-1.564.41H2.032V26.277h2.2a4.841,4.841,0,0,1,1.06.076,1.274,1.274,0,0,1,.718.507,1.553,1.553,0,0,1,.272.922A1.459,1.459,0,0,1,5.816,28.936Z"/>
    <path d="M17.111,28.33a2.79,2.79,0,0,0-2.1-.841,2.889,2.889,0,0,0-1.956.692A3.2,3.2,0,0,0,12.1,30.74a3.345,3.345,0,0,0,.806,2.413,2.793,2.793,0,0,0,2.111.838,3.053,3.053,0,0,0,1.5-.381,2.553,2.553,0,0,0,1.048-1.069,4.116,4.116,0,0,0,.36-1.889A3.2,3.2,0,0,0,17.111,28.33Zm-.79,4.2a1.736,1.736,0,0,1-2.619,0,2.65,2.65,0,0,1-.521-1.789,2.639,2.639,0,0,1,.521-1.786,1.738,1.738,0,0,1,2.616,0,2.569,2.569,0,0,1,.524,1.748A2.713,2.713,0,0,1,16.321,32.526Z"/>
    <path d="M19.021,34.166a2.192,2.192,0,0,1-.158,1.07.56.56,0,0,1-.48.213,2.1,2.1,0,0,1-.5-.082h0c-.1-.025-.2-.051-.2-.051v.946a3.027,3.027,0,0,0,.826.112,1.394,1.394,0,0,0,1.266-.586,3.081,3.081,0,0,0,.3-1.6V27.63H19.021Z"/>
    <rect x="19.021" y="25.264" width="1.055" height="1.224"/>
    <path d="M26.99,30.728a3.373,3.373,0,0,0-.791-2.389,2.658,2.658,0,0,0-2.039-.85,2.733,2.733,0,0,0-2.1.867,3.437,3.437,0,0,0-.809,2.437,3.283,3.283,0,0,0,.8,2.357,2.842,2.842,0,0,0,2.164.841A2.876,2.876,0,0,0,26,33.464,2.658,2.658,0,0,0,26.948,32h0l0-.019v0h0a1.241,1.241,0,0,0,.031-.135h-1.12a2.031,2.031,0,0,1-.65.973,1.614,1.614,0,0,1-.99.3,1.729,1.729,0,0,1-1.3-.545,2.391,2.391,0,0,1-.579-1.569h4.639C26.988,30.885,26.99,30.79,26.99,30.728ZM22.4,30.143a1.925,1.925,0,0,1,.548-1.3,1.675,1.675,0,0,1,1.221-.486,1.615,1.615,0,0,1,1.306.609,2.107,2.107,0,0,1,.4,1.178Z"/>
    <polygon points="33.094 27.63 31.729 27.63 29.234 30.16 29.234 25.264 28.18 25.264 28.18 33.85 29.234 33.85 29.234 31.385 29.978 30.669 32.034 33.85 33.334 33.85 30.716 29.938 33.094 27.63"/>
    <path d="M36.158,32.948a.7.7,0,0,1-.36-.076.438.438,0,0,1-.181-.2,1.806,1.806,0,0,1-.056-.58V28.45h1.06v-.82h-1.06V25.457l-1.049.633v1.54h-.773v.82h.773v3.579a3.808,3.808,0,0,0,.129,1.245,1.023,1.023,0,0,0,.446.477,1.8,1.8,0,0,0,.89.181,3.93,3.93,0,0,0,.8-.093v-.978a.77.77,0,0,1-.184.05A3.184,3.184,0,0,1,36.158,32.948Z"/>
    <path d="M40,27.489a2.89,2.89,0,0,0-1.957.692,3.206,3.206,0,0,0-.961,2.559,3.345,3.345,0,0,0,.806,2.413A2.8,2.8,0,0,0,40,33.991a3.052,3.052,0,0,0,1.5-.381,2.547,2.547,0,0,0,1.048-1.069,4.115,4.115,0,0,0,.361-1.889A3.2,3.2,0,0,0,42.1,28.33,2.787,2.787,0,0,0,40,27.489Zm1.306,5.037a1.736,1.736,0,0,1-2.619,0,2.65,2.65,0,0,1-.521-1.789,2.639,2.639,0,0,1,.521-1.786,1.738,1.738,0,0,1,2.616,0,2.569,2.569,0,0,1,.524,1.748A2.713,2.713,0,0,1,41.308,32.526Z"/>
    <path d="M49.665,31.226l-.357,1.2L49,31.238l-.931-3.608H46.983l-.99,3.643q-.3,1.183-.322,1.283L45.3,31.22l-.99-3.59h-1.09l1.9,6.22h1.1l1.259-4.785.241,1.06.989,3.725h1.1l1.944-6.22H50.731Z"/>
    <path d="M60.817,15a1.686,1.686,0,0,0-.627.093,1.98,1.98,0,0,0-.727.85V15h-.949v6.221h1.055V17.962a4.113,4.113,0,0,1,.175-1.23,1.126,1.126,0,0,1,.393-.577,1.29,1.29,0,0,1,.665-.232c.377-.027.975,0,.975,0l0-.923Z"/>
    <path d="M10.864,27.63a1.694,1.694,0,0,0-.628.093,1.979,1.979,0,0,0-.726.85V27.63H8.561v6.22H9.615V30.594a4.1,4.1,0,0,1,.176-1.23,1.126,1.126,0,0,1,.393-.577,1.29,1.29,0,0,1,.665-.232c.376-.027.974,0,.974,0l0-.923Z"/>
    <path d="M40.726,5.33A4.112,4.112,0,0,1,40.9,4.1a1.13,1.13,0,0,1,.392-.577,1.3,1.3,0,0,1,.666-.231c.246-.018.842-.014,1.227-.009L45.2,8.6c-.043.112-.074.2-.094.257a5.2,5.2,0,0,1-.322.785.953.953,0,0,1-.346.328,1.154,1.154,0,0,1-.562.117,2.361,2.361,0,0,1-.6-.093v.95s.143.05.217.072h0a2.023,2.023,0,0,0,.576.1,1.522,1.522,0,0,0,.867-.243,2.072,2.072,0,0,0,.644-.764,12.418,12.418,0,0,0,.592-1.412l2.366-6.326H47.484L46.155,5.992a14.115,14.115,0,0,0-.434,1.418q-.2-.756-.451-1.441l-1.294-3.6h-2a1.694,1.694,0,0,0-.628.093,1.983,1.983,0,0,0-.726.851V2.366h-.949V8.587h1.054Z"/>
    <path d="M23.7,5a7.731,7.731,0,0,0-.938.158,2.571,2.571,0,0,0-.758.346,1.733,1.733,0,0,0-.753,1.441,1.656,1.656,0,0,0,.551,1.28,2.264,2.264,0,0,0,1.575.5,3.252,3.252,0,0,0,1.163-.205,3.938,3.938,0,0,0,1.128-.7,2.243,2.243,0,0,0,.21.767h1.1a2.349,2.349,0,0,1-.267-.747,14.941,14.941,0,0,1-.067-1.86V4.574A5.947,5.947,0,0,0,26.6,3.6a1.651,1.651,0,0,0-.328-.717,1.7,1.7,0,0,0-.732-.472,3.74,3.74,0,0,0-1.295-.187,4.161,4.161,0,0,0-1.411.219,2.035,2.035,0,0,0-.932.627,2.509,2.509,0,0,0-.443,1c-.01.042-.041.214-.041.214h1.053a1.592,1.592,0,0,1,.524-.923,1.859,1.859,0,0,1,1.1-.26,1.76,1.76,0,0,1,1.2.357,1.162,1.162,0,0,1,.3.907c0,.04,0,.131-.006.276A9.641,9.641,0,0,1,23.7,5Zm1.88.849a2.553,2.553,0,0,1-.17,1.055,1.644,1.644,0,0,1-.7.729,2.172,2.172,0,0,1-1.084.266A1.37,1.37,0,0,1,22.7,7.62a.9.9,0,0,1-.319-.7.908.908,0,0,1,.146-.5.929.929,0,0,1,.416-.342,4.017,4.017,0,0,1,.92-.211,7.739,7.739,0,0,0,1.722-.4Z"/>
    <path d="M72.5,20.111a1.478,1.478,0,0,1-1.037.381,1.565,1.565,0,0,1-1.254-.568,2.8,2.8,0,0,1-.48-1.822,2.711,2.711,0,0,1,.5-1.807,1.639,1.639,0,0,1,1.294-.57,1.342,1.342,0,0,1,.9.316,1.7,1.7,0,0,1,.518.942h1.048l-.057-.307a2.3,2.3,0,0,0-.792-1.306,2.578,2.578,0,0,0-1.657-.513A3.015,3.015,0,0,0,70,15.235a2.332,2.332,0,0,0-1.017,1.134,4.336,4.336,0,0,0-.333,1.763,3.382,3.382,0,0,0,.776,2.392,2.667,2.667,0,0,0,2.053.835,2.536,2.536,0,0,0,1.719-.606,2.655,2.655,0,0,0,.851-1.584l.039-.229H73.026A1.887,1.887,0,0,1,72.5,20.111Z"/>
    <path d="M62.846,7.84a14.941,14.941,0,0,1-.067-1.86V4.574a5.947,5.947,0,0,0-.053-.972,1.651,1.651,0,0,0-.328-.717,1.7,1.7,0,0,0-.732-.472,3.74,3.74,0,0,0-1.295-.187,4.161,4.161,0,0,0-1.411.219,2.04,2.04,0,0,0-.932.627,2.509,2.509,0,0,0-.443,1c-.01.042-.041.214-.041.214H58.6a1.592,1.592,0,0,1,.524-.923,1.859,1.859,0,0,1,1.1-.26,1.76,1.76,0,0,1,1.2.357,1.162,1.162,0,0,1,.3.907c0,.04,0,.131-.006.276A9.641,9.641,0,0,1,59.833,5a7.731,7.731,0,0,0-.938.158,2.56,2.56,0,0,0-.758.346,1.733,1.733,0,0,0-.753,1.441,1.656,1.656,0,0,0,.551,1.28,2.265,2.265,0,0,0,1.576.5,3.25,3.25,0,0,0,1.162-.205,3.938,3.938,0,0,0,1.128-.7,2.243,2.243,0,0,0,.21.767h1.1A2.349,2.349,0,0,1,62.846,7.84ZM61.713,5.851a2.553,2.553,0,0,1-.17,1.055,1.644,1.644,0,0,1-.7.729,2.172,2.172,0,0,1-1.084.266,1.37,1.37,0,0,1-.934-.281.9.9,0,0,1-.319-.7.908.908,0,0,1,.146-.5.929.929,0,0,1,.416-.342,4.017,4.017,0,0,1,.92-.211,7.739,7.739,0,0,0,1.722-.4Z"/>
    <path d="M104.386,20.471a14.909,14.909,0,0,1-.067-1.859V17.206a5.939,5.939,0,0,0-.053-.972,1.651,1.651,0,0,0-.328-.717,1.7,1.7,0,0,0-.732-.472,3.738,3.738,0,0,0-1.3-.188,4.16,4.16,0,0,0-1.411.22,2.02,2.02,0,0,0-.932.627,2.509,2.509,0,0,0-.443,1c-.01.041-.041.214-.041.214h1.053a1.589,1.589,0,0,1,.524-.923,1.858,1.858,0,0,1,1.1-.261,1.767,1.767,0,0,1,1.2.357,1.166,1.166,0,0,1,.3.908c0,.039,0,.131-.006.275a9.626,9.626,0,0,1-1.88.364,7.731,7.731,0,0,0-.938.158,2.56,2.56,0,0,0-.758.346,1.733,1.733,0,0,0-.753,1.441,1.656,1.656,0,0,0,.551,1.28,2.265,2.265,0,0,0,1.576.5,3.25,3.25,0,0,0,1.162-.205,3.926,3.926,0,0,0,1.127-.7,2.265,2.265,0,0,0,.211.768h1.1A2.346,2.346,0,0,1,104.386,20.471Zm-1.133-1.988a2.544,2.544,0,0,1-.17,1.054,1.639,1.639,0,0,1-.7.729,2.172,2.172,0,0,1-1.084.267,1.37,1.37,0,0,1-.934-.281.934.934,0,0,1-.173-1.2.923.923,0,0,1,.416-.342,4.017,4.017,0,0,1,.92-.211,7.73,7.73,0,0,0,1.722-.4Z"/>
    <path d="M67.492,18.612V17.206a5.939,5.939,0,0,0-.053-.972,1.651,1.651,0,0,0-.328-.717,1.7,1.7,0,0,0-.732-.472,3.734,3.734,0,0,0-1.3-.188,4.164,4.164,0,0,0-1.411.22,2.016,2.016,0,0,0-.931.627,2.5,2.5,0,0,0-.444,1c-.01.041-.041.214-.041.214H63.31a1.589,1.589,0,0,1,.524-.923,1.858,1.858,0,0,1,1.1-.261,1.766,1.766,0,0,1,1.2.357,1.166,1.166,0,0,1,.3.908c0,.039,0,.131-.006.275a9.626,9.626,0,0,1-1.88.364,7.671,7.671,0,0,0-.937.158,2.577,2.577,0,0,0-.759.346,1.726,1.726,0,0,0-.545.606,1.709,1.709,0,0,0-.207.835,1.655,1.655,0,0,0,.55,1.28,2.265,2.265,0,0,0,1.576.5,3.25,3.25,0,0,0,1.162-.205,3.943,3.943,0,0,0,1.128-.7,2.221,2.221,0,0,0,.211.768h1.1a2.346,2.346,0,0,1-.267-.748A14.909,14.909,0,0,1,67.492,18.612Zm-1.066-.129a2.544,2.544,0,0,1-.17,1.054,1.634,1.634,0,0,1-.7.729,2.169,2.169,0,0,1-1.084.267,1.37,1.37,0,0,1-.934-.281.934.934,0,0,1-.173-1.2.923.923,0,0,1,.416-.342,4.017,4.017,0,0,1,.92-.211,7.73,7.73,0,0,0,1.722-.4Z"/>
    <path d="M42.8,17.634a7.743,7.743,0,0,0-.937.158,2.56,2.56,0,0,0-.758.346,1.733,1.733,0,0,0-.753,1.441,1.656,1.656,0,0,0,.551,1.28,2.264,2.264,0,0,0,1.575.5,3.252,3.252,0,0,0,1.163-.205,3.926,3.926,0,0,0,1.127-.7,2.265,2.265,0,0,0,.211.768h1.1a2.346,2.346,0,0,1-.267-.748,14.909,14.909,0,0,1-.067-1.859V17.206a5.939,5.939,0,0,0-.053-.972,1.662,1.662,0,0,0-.328-.717,1.7,1.7,0,0,0-.732-.472,3.738,3.738,0,0,0-1.295-.188,4.16,4.16,0,0,0-1.411.22A2.02,2.02,0,0,0,41,15.7a2.509,2.509,0,0,0-.443,1c-.01.041-.042.214-.042.214h1.054a1.584,1.584,0,0,1,.524-.923,1.858,1.858,0,0,1,1.1-.261,1.767,1.767,0,0,1,1.2.357,1.166,1.166,0,0,1,.3.908c0,.039,0,.131,0,.275A9.639,9.639,0,0,1,42.8,17.634Zm1.881.849a2.544,2.544,0,0,1-.17,1.054,1.639,1.639,0,0,1-.7.729,2.172,2.172,0,0,1-1.084.267,1.37,1.37,0,0,1-.934-.281.934.934,0,0,1-.173-1.2.917.917,0,0,1,.416-.342,4.019,4.019,0,0,1,.919-.211,7.727,7.727,0,0,0,1.723-.4Z"/>
    <path d="M57.34,31.244V29.838a5.962,5.962,0,0,0-.053-.973,1.661,1.661,0,0,0-.328-.717,1.707,1.707,0,0,0-.732-.471,3.732,3.732,0,0,0-1.294-.188,4.166,4.166,0,0,0-1.412.22,2.016,2.016,0,0,0-.931.627,2.489,2.489,0,0,0-.444,1c-.01.041-.041.213-.041.213h1.053a1.6,1.6,0,0,1,.524-.923,1.867,1.867,0,0,1,1.1-.26,1.766,1.766,0,0,1,1.2.357,1.165,1.165,0,0,1,.3.908c0,.039,0,.131-.006.275a9.566,9.566,0,0,1-1.88.363,7.441,7.441,0,0,0-.937.159,2.575,2.575,0,0,0-.759.345,1.73,1.73,0,0,0-.545.607,1.708,1.708,0,0,0-.208.834,1.653,1.653,0,0,0,.551,1.28,2.261,2.261,0,0,0,1.576.5,3.25,3.25,0,0,0,1.162-.2,3.943,3.943,0,0,0,1.128-.7,2.209,2.209,0,0,0,.211.767h1.1a2.341,2.341,0,0,1-.267-.747A14.909,14.909,0,0,1,57.34,31.244Zm-1.066-.129a2.55,2.55,0,0,1-.17,1.054,1.634,1.634,0,0,1-.7.729,2.169,2.169,0,0,1-1.084.267,1.37,1.37,0,0,1-.934-.282.9.9,0,0,1-.319-.7.906.906,0,0,1,.146-.5.925.925,0,0,1,.416-.343,4.017,4.017,0,0,1,.92-.211,7.683,7.683,0,0,0,1.722-.4Z"/>
    <polygon points="3.021 4.647 3.438 4.241 6.496 8.587 7.995 8.587 4.235 3.479 7.837 0 6.297 0 3.482 2.811 4.187 0 3.051 0 0.896 8.587 2.033 8.587 3.021 4.647"/>
  </g>
</svg>
